<svg id="export-svg" width="100%" xmlns="http://www.w3.org/2000/svg" style="max-width: 1800px; background: rgb(255, 255, 255);" viewBox="-50 -10 1800 2198" role="graphics-document document" aria-roledescription="sequence"><style xmlns="http://www.w3.org/1999/xhtml">p {margin: 0;}</style><g><rect x="1550" y="2082" fill="#eaeaea" stroke="#666" width="150" height="65" name="BT" rx="6" ry="6" class="actor actor-bottom" data-look="neo" filter="url(#drop-shadow)"/><text x="1625" y="2114.5" style="text-anchor: middle; font-size: 16px; font-weight: 400;" dominant-baseline="central" alignment-baseline="central" class="actor actor-box"><tspan x="1625" dy="0">BoxTask</tspan></text></g><g><rect x="1350" y="2082" fill="#eaeaea" stroke="#666" width="150" height="65" name="CT" rx="6" ry="6" class="actor actor-bottom" data-look="neo" filter="url(#drop-shadow)"/><text x="1425" y="2114.5" style="text-anchor: middle; font-size: 16px; font-weight: 400;" dominant-baseline="central" alignment-baseline="central" class="actor actor-box"><tspan x="1425" dy="0">ColumnTask</tspan></text></g><g><rect x="1150" y="2082" fill="#eaeaea" stroke="#666" width="150" height="65" name="RT" rx="6" ry="6" class="actor actor-bottom" data-look="neo" filter="url(#drop-shadow)"/><text x="1225" y="2114.5" style="text-anchor: middle; font-size: 16px; font-weight: 400;" dominant-baseline="central" alignment-baseline="central" class="actor actor-box"><tspan x="1225" dy="0">RowTask</tspan></text></g><g><rect x="893" y="2082" fill="#eaeaea" stroke="#666" width="150" height="65" name="VT" rx="6" ry="6" class="actor actor-bottom" data-look="neo" filter="url(#drop-shadow)"/><text x="968" y="2114.5" style="text-anchor: middle; font-size: 16px; font-weight: 400;" dominant-baseline="central" alignment-baseline="central" class="actor actor-box"><tspan x="968" dy="0">VerificationTask</tspan></text></g><g><rect x="693" y="2082" fill="#eaeaea" stroke="#666" width="150" height="65" name="ES" rx="6" ry="6" class="actor actor-bottom" data-look="neo" filter="url(#drop-shadow)"/><text x="768" y="2114.5" style="text-anchor: middle; font-size: 16px; font-weight: 400;" dominant-baseline="central" alignment-baseline="central" class="actor actor-box"><tspan x="768" dy="0">ExecutorService</tspan></text></g><g><rect x="493" y="2082" fill="#eaeaea" stroke="#666" width="150" height="65" name="TF" rx="6" ry="6" class="actor actor-bottom" data-look="neo" filter="url(#drop-shadow)"/><text x="568" y="2114.5" style="text-anchor: middle; font-size: 16px; font-weight: 400;" dominant-baseline="central" alignment-baseline="central" class="actor actor-box"><tspan x="568" dy="0">TaskFactory</tspan></text></g><g><rect x="293" y="2082" fill="#eaeaea" stroke="#666" width="150" height="65" name="SV" rx="6" ry="6" class="actor actor-bottom" data-look="neo" filter="url(#drop-shadow)"/><text x="368" y="2114.5" style="text-anchor: middle; font-size: 16px; font-weight: 400;" dominant-baseline="central" alignment-baseline="central" class="actor actor-box"><tspan x="368" dy="0">SudokuVerifier</tspan></text></g><g/><g><line id="actor175" x1="1625" y1="65" x2="1625" y2="2082" class="actor-line 200" stroke-width="0.5px" stroke="#999" name="BT" data-et="life-line" data-id="BT"/><g id="root-175" data-look="neo" data-et="participant" data-type="participant" data-id="BT"><rect x="1550" y="0" fill="#eaeaea" stroke="#666" width="150" height="65" name="BT" rx="6" ry="6" class="actor actor-top" data-look="neo" filter="url(#drop-shadow)"/><text x="1625" y="32.5" style="text-anchor: middle; font-size: 16px; font-weight: 400;" dominant-baseline="central" alignment-baseline="central" class="actor actor-box"><tspan x="1625" dy="0">BoxTask</tspan></text></g></g><g><line id="actor174" x1="1425" y1="65" x2="1425" y2="2082" class="actor-line 200" stroke-width="0.5px" stroke="#999" name="CT" data-et="life-line" data-id="CT"/><g id="root-174" data-look="neo" data-et="participant" data-type="participant" data-id="CT"><rect x="1350" y="0" fill="#eaeaea" stroke="#666" width="150" height="65" name="CT" rx="6" ry="6" class="actor actor-top" data-look="neo" filter="url(#drop-shadow)"/><text x="1425" y="32.5" style="text-anchor: middle; font-size: 16px; font-weight: 400;" dominant-baseline="central" alignment-baseline="central" class="actor actor-box"><tspan x="1425" dy="0">ColumnTask</tspan></text></g></g><g><line id="actor173" x1="1225" y1="65" x2="1225" y2="2082" class="actor-line 200" stroke-width="0.5px" stroke="#999" name="RT" data-et="life-line" data-id="RT"/><g id="root-173" data-look="neo" data-et="participant" data-type="participant" data-id="RT"><rect x="1150" y="0" fill="#eaeaea" stroke="#666" width="150" height="65" name="RT" rx="6" ry="6" class="actor actor-top" data-look="neo" filter="url(#drop-shadow)"/><text x="1225" y="32.5" style="text-anchor: middle; font-size: 16px; font-weight: 400;" dominant-baseline="central" alignment-baseline="central" class="actor actor-box"><tspan x="1225" dy="0">RowTask</tspan></text></g></g><g><line id="actor172" x1="968" y1="65" x2="968" y2="2082" class="actor-line 200" stroke-width="0.5px" stroke="#999" name="VT" data-et="life-line" data-id="VT"/><g id="root-172" data-look="neo" data-et="participant" data-type="participant" data-id="VT"><rect x="893" y="0" fill="#eaeaea" stroke="#666" width="150" height="65" name="VT" rx="6" ry="6" class="actor actor-top" data-look="neo" filter="url(#drop-shadow)"/><text x="968" y="32.5" style="text-anchor: middle; font-size: 16px; font-weight: 400;" dominant-baseline="central" alignment-baseline="central" class="actor actor-box"><tspan x="968" dy="0">VerificationTask</tspan></text></g></g><g><line id="actor171" x1="768" y1="65" x2="768" y2="2082" class="actor-line 200" stroke-width="0.5px" stroke="#999" name="ES" data-et="life-line" data-id="ES"/><g id="root-171" data-look="neo" data-et="participant" data-type="participant" data-id="ES"><rect x="693" y="0" fill="#eaeaea" stroke="#666" width="150" height="65" name="ES" rx="6" ry="6" class="actor actor-top" data-look="neo" filter="url(#drop-shadow)"/><text x="768" y="32.5" style="text-anchor: middle; font-size: 16px; font-weight: 400;" dominant-baseline="central" alignment-baseline="central" class="actor actor-box"><tspan x="768" dy="0">ExecutorService</tspan></text></g></g><g><line id="actor170" x1="568" y1="65" x2="568" y2="2082" class="actor-line 200" stroke-width="0.5px" stroke="#999" name="TF" data-et="life-line" data-id="TF"/><g id="root-170" data-look="neo" data-et="participant" data-type="participant" data-id="TF"><rect x="493" y="0" fill="#eaeaea" stroke="#666" width="150" height="65" name="TF" rx="6" ry="6" class="actor actor-top" data-look="neo" filter="url(#drop-shadow)"/><text x="568" y="32.5" style="text-anchor: middle; font-size: 16px; font-weight: 400;" dominant-baseline="central" alignment-baseline="central" class="actor actor-box"><tspan x="568" dy="0">TaskFactory</tspan></text></g></g><g><line id="actor169" x1="368" y1="65" x2="368" y2="2082" class="actor-line 200" stroke-width="0.5px" stroke="#999" name="SV" data-et="life-line" data-id="SV"/><g id="root-169" data-look="neo" data-et="participant" data-type="participant" data-id="SV"><rect x="293" y="0" fill="#eaeaea" stroke="#666" width="150" height="65" name="SV" rx="6" ry="6" class="actor actor-top" data-look="neo" filter="url(#drop-shadow)"/><text x="368" y="32.5" style="text-anchor: middle; font-size: 16px; font-weight: 400;" dominant-baseline="central" alignment-baseline="central" class="actor actor-box"><tspan x="368" dy="0">SudokuVerifier</tspan></text></g></g><g><line id="actor168" x1="75" y1="80" x2="75" y2="2082" class="actor-line 200" stroke-width="0.5px" stroke="#999" name="Client" data-et="life-line" data-id="Client"/></g><style>#export-svg{font-family:arial,sans-serif;font-size:14px;fill:#333;}@keyframes edge-animation-frame{from{stroke-dashoffset:0;}}@keyframes dash{to{stroke-dashoffset:0;}}#export-svg .edge-animation-slow{stroke-dasharray:9,5!important;stroke-dashoffset:900;animation:dash 50s linear infinite;stroke-linecap:round;}#export-svg .edge-animation-fast{stroke-dasharray:9,5!important;stroke-dashoffset:900;animation:dash 20s linear infinite;stroke-linecap:round;}#export-svg .error-icon{fill:#ffffff;}#export-svg .error-text{fill:#000000;stroke:#000000;}#export-svg .edge-thickness-normal{stroke-width:1px;}#export-svg .edge-thickness-thick{stroke-width:3.5px;}#export-svg .edge-pattern-solid{stroke-dasharray:0;}#export-svg .edge-thickness-invisible{stroke-width:0;fill:none;}#export-svg .edge-pattern-dashed{stroke-dasharray:3;}#export-svg .edge-pattern-dotted{stroke-dasharray:2;}#export-svg .marker{fill:#000000;stroke:#000000;}#export-svg .marker.cross{stroke:#000000;}#export-svg svg{font-family:arial,sans-serif;font-size:14px;}#export-svg p{margin:0;}#export-svg .actor{stroke:hsl(240, 50%, 86.0784313725%);fill:#ffffff;stroke-width:1;}#export-svg rect.actor.outer-path[data-look="neo"]{filter:drop-shadow( 0px 1px 2px rgba(0, 0, 0, 0.25));}#export-svg rect.note[data-look="neo"]{stroke:hsl(52.6829268293, 60%, 73.9215686275%);fill:#fff5ad;filter:drop-shadow( 0px 1px 2px rgba(0, 0, 0, 0.25));stroke-width:1;}#export-svg text.actor&gt;tspan{fill:#333;stroke:none;}#export-svg .actor-line{stroke:hsl(240, 50%, 86.0784313725%);}#export-svg .innerArc{stroke-width:1.5;stroke-dasharray:none;}#export-svg .messageLine0{stroke-width:1;stroke-dasharray:none;stroke:#333;}#export-svg .messageLine1{stroke-width:1;stroke-dasharray:2,2;stroke:#333;}#export-svg #arrowhead path{fill:#333;stroke:#333;}#export-svg .sequenceNumber{fill:#ffffff;}#export-svg #sequencenumber{fill:#333;}#export-svg #crosshead path{fill:#333;stroke:#333;}#export-svg .messageText{fill:#333;stroke:none;}#export-svg .labelBox{stroke:hsl(240, 50%, 86.0784313725%);fill:#ffffff;filter:drop-shadow( 0px 1px 2px rgba(0, 0, 0, 0.25));}#export-svg .labelText,#export-svg .labelText&gt;tspan{fill:#333;stroke:none;}#export-svg .loopText,#export-svg .loopText&gt;tspan{fill:#333;stroke:none;}#export-svg .loopLine{stroke-width:2px;stroke-dasharray:2,2;stroke:hsl(240, 50%, 86.0784313725%);fill:hsl(240, 50%, 86.0784313725%);}#export-svg .note{stroke:hsl(52.6829268293, 60%, 73.9215686275%);fill:#fff5ad;}#export-svg .noteText,#export-svg .noteText&gt;tspan{fill:#333;stroke:none;font-weight:normal;}#export-svg .activation0{fill:#E9E9F1;stroke:hsl(240, 22.2222222222%, 82.9411764706%);}#export-svg .activation1{fill:#E9E9F1;stroke:hsl(240, 22.2222222222%, 82.9411764706%);}#export-svg .activation2{fill:#E9E9F1;stroke:hsl(240, 22.2222222222%, 82.9411764706%);}#export-svg .actorPopupMenu{position:absolute;}#export-svg .actorPopupMenuPanel{position:absolute;fill:#ffffff;box-shadow:0px 8px 16px 0px rgba(0,0,0,0.2);filter:drop-shadow(3px 5px 2px rgb(0 0 0 / 0.4));}#export-svg .actor-man circle,#export-svg line{fill:#ffffff;stroke-width:2px;}#export-svg g rect.rect{filter:drop-shadow( 0px 1px 2px rgba(0, 0, 0, 0.25));stroke:#000000;stroke-width:1;}#export-svg .node .neo-node{stroke:#000000;}#export-svg [data-look="neo"].node rect,#export-svg [data-look="neo"].cluster rect,#export-svg [data-look="neo"].node polygon{stroke:url(#export-svg-gradient);filter:drop-shadow( 0px 1px 2px rgba(0, 0, 0, 0.25));}#export-svg [data-look="neo"].node path{stroke:url(#export-svg-gradient);stroke-width:1;}#export-svg [data-look="neo"].node .outer-path{filter:drop-shadow( 0px 1px 2px rgba(0, 0, 0, 0.25));}#export-svg [data-look="neo"].node .neo-line path{stroke:#000000;filter:none;}#export-svg [data-look="neo"].node circle{stroke:url(#export-svg-gradient);filter:drop-shadow( 0px 1px 2px rgba(0, 0, 0, 0.25));}#export-svg [data-look="neo"].node circle .state-start{fill:#000000;}#export-svg [data-look="neo"].statediagram-cluster rect{fill:#ffffff;stroke:url(#export-svg-gradient);stroke-width:1;}#export-svg [data-look="neo"].icon-shape .icon{fill:url(#export-svg-gradient);filter:drop-shadow( 0px 1px 2px rgba(0, 0, 0, 0.25));}#export-svg [data-look="neo"].icon-shape .icon-neo path{stroke:url(#export-svg-gradient);filter:drop-shadow( 0px 1px 2px rgba(0, 0, 0, 0.25));}#export-svg :root{--mermaid-font-family:"trebuchet ms",verdana,arial,sans-serif;}</style><g/><defs><symbol id="computer" width="24" height="24"><path transform="scale(.5)" d="M2 2v13h20v-13h-20zm18 11h-16v-9h16v9zm-10.228 6l.466-1h3.524l.467 1h-4.457zm14.228 3h-24l2-6h2.104l-1.33 4h18.45l-1.297-4h2.073l2 6zm-5-10h-14v-7h14v7z"/></symbol></defs><defs><symbol id="database" fill-rule="evenodd" clip-rule="evenodd"><path transform="scale(.5)" d="M12.258.001l.256.004.255.005.253.008.251.01.249.012.247.015.246.016.242.019.241.02.239.023.236.024.233.027.231.028.229.031.225.032.223.034.22.036.217.038.214.04.211.041.208.043.205.045.201.046.198.048.194.05.191.051.187.053.183.054.18.056.175.057.172.059.168.06.163.061.16.063.155.064.15.066.074.033.073.033.071.034.07.034.069.035.068.035.067.035.066.035.064.036.064.036.062.036.06.036.06.037.058.037.058.037.055.038.055.038.053.038.052.038.051.039.05.039.048.039.047.039.045.04.044.04.043.04.041.04.04.041.039.041.037.041.036.041.034.041.033.042.032.042.03.042.029.042.027.042.026.043.024.043.023.043.021.043.02.043.018.044.017.043.015.044.013.044.012.044.011.045.009.044.007.045.006.045.004.045.002.045.001.045v17l-.001.045-.002.045-.004.045-.006.045-.007.045-.009.044-.011.045-.012.044-.013.044-.015.044-.017.043-.018.044-.02.043-.021.043-.023.043-.024.043-.026.043-.027.042-.029.042-.03.042-.032.042-.033.042-.034.041-.036.041-.037.041-.039.041-.04.041-.041.04-.043.04-.044.04-.045.04-.047.039-.048.039-.05.039-.051.039-.052.038-.053.038-.055.038-.055.038-.058.037-.058.037-.06.037-.06.036-.062.036-.064.036-.064.036-.066.035-.067.035-.068.035-.069.035-.07.034-.071.034-.073.033-.074.033-.15.066-.155.064-.16.063-.163.061-.168.06-.172.059-.175.057-.18.056-.183.054-.187.053-.191.051-.194.05-.198.048-.201.046-.205.045-.208.043-.211.041-.214.04-.217.038-.22.036-.223.034-.225.032-.229.031-.231.028-.233.027-.236.024-.239.023-.241.02-.242.019-.246.016-.247.015-.249.012-.251.01-.253.008-.255.005-.256.004-.258.001-.258-.001-.256-.004-.255-.005-.253-.008-.251-.01-.249-.012-.247-.015-.245-.016-.243-.019-.241-.02-.238-.023-.236-.024-.234-.027-.231-.028-.228-.031-.226-.032-.223-.034-.22-.036-.217-.038-.214-.04-.211-.041-.208-.043-.204-.045-.201-.046-.198-.048-.195-.05-.19-.051-.187-.053-.184-.054-.179-.056-.176-.057-.172-.059-.167-.06-.164-.061-.159-.063-.155-.064-.151-.066-.074-.033-.072-.033-.072-.034-.07-.034-.069-.035-.068-.035-.067-.035-.066-.035-.064-.036-.063-.036-.062-.036-.061-.036-.06-.037-.058-.037-.057-.037-.056-.038-.055-.038-.053-.038-.052-.038-.051-.039-.049-.039-.049-.039-.046-.039-.046-.04-.044-.04-.043-.04-.041-.04-.04-.041-.039-.041-.037-.041-.036-.041-.034-.041-.033-.042-.032-.042-.03-.042-.029-.042-.027-.042-.026-.043-.024-.043-.023-.043-.021-.043-.02-.043-.018-.044-.017-.043-.015-.044-.013-.044-.012-.044-.011-.045-.009-.044-.007-.045-.006-.045-.004-.045-.002-.045-.001-.045v-17l.001-.045.002-.045.004-.045.006-.045.007-.045.009-.044.011-.045.012-.044.013-.044.015-.044.017-.043.018-.044.02-.043.021-.043.023-.043.024-.043.026-.043.027-.042.029-.042.03-.042.032-.042.033-.042.034-.041.036-.041.037-.041.039-.041.04-.041.041-.04.043-.04.044-.04.046-.04.046-.039.049-.039.049-.039.051-.039.052-.038.053-.038.055-.038.056-.038.057-.037.058-.037.06-.037.061-.036.062-.036.063-.036.064-.036.066-.035.067-.035.068-.035.069-.035.07-.034.072-.034.072-.033.074-.033.151-.066.155-.064.159-.063.164-.061.167-.06.172-.059.176-.057.179-.056.184-.054.187-.053.19-.051.195-.05.198-.048.201-.046.204-.045.208-.043.211-.041.214-.04.217-.038.22-.036.223-.034.226-.032.228-.031.231-.028.234-.027.236-.024.238-.023.241-.02.243-.019.245-.016.247-.015.249-.012.251-.01.253-.008.255-.005.256-.004.258-.001.258.001zm-9.258 20.499v.01l.001.021.003.021.004.022.005.021.006.022.007.022.009.023.01.022.011.023.012.023.013.023.015.023.016.024.017.023.018.024.019.024.021.024.022.025.023.024.024.025.052.049.056.05.061.051.066.051.07.051.075.051.079.052.084.052.088.052.092.052.097.052.102.051.105.052.11.052.114.051.119.051.123.051.127.05.131.05.135.05.139.048.144.049.147.047.152.047.155.047.16.045.163.045.167.043.171.043.176.041.178.041.183.039.187.039.19.037.194.035.197.035.202.033.204.031.209.03.212.029.216.027.219.025.222.024.226.021.23.02.233.018.236.016.24.015.243.012.246.01.249.008.253.005.256.004.259.001.26-.001.257-.004.254-.005.25-.008.247-.011.244-.012.241-.014.237-.016.233-.018.231-.021.226-.021.224-.024.22-.026.216-.027.212-.028.21-.031.205-.031.202-.034.198-.034.194-.036.191-.037.187-.039.183-.04.179-.04.175-.042.172-.043.168-.044.163-.045.16-.046.155-.046.152-.047.148-.048.143-.049.139-.049.136-.05.131-.05.126-.05.123-.051.118-.052.114-.051.11-.052.106-.052.101-.052.096-.052.092-.052.088-.053.083-.051.079-.052.074-.052.07-.051.065-.051.06-.051.056-.05.051-.05.023-.024.023-.025.021-.024.02-.024.019-.024.018-.024.017-.024.015-.023.014-.024.013-.023.012-.023.01-.023.01-.022.008-.022.006-.022.006-.022.004-.022.004-.021.001-.021.001-.021v-4.127l-.077.055-.08.053-.083.054-.085.053-.087.052-.09.052-.093.051-.095.05-.097.05-.1.049-.102.049-.105.048-.106.047-.109.047-.111.046-.114.045-.115.045-.118.044-.12.043-.122.042-.124.042-.126.041-.128.04-.13.04-.132.038-.134.038-.135.037-.138.037-.139.035-.142.035-.143.034-.144.033-.147.032-.148.031-.15.03-.151.03-.153.029-.154.027-.156.027-.158.026-.159.025-.161.024-.162.023-.163.022-.165.021-.166.02-.167.019-.169.018-.169.017-.171.016-.173.015-.173.014-.175.013-.175.012-.177.011-.178.01-.179.008-.179.008-.181.006-.182.005-.182.004-.184.003-.184.002h-.37l-.184-.002-.184-.003-.182-.004-.182-.005-.181-.006-.179-.008-.179-.008-.178-.01-.176-.011-.176-.012-.175-.013-.173-.014-.172-.015-.171-.016-.17-.017-.169-.018-.167-.019-.166-.02-.165-.021-.163-.022-.162-.023-.161-.024-.159-.025-.157-.026-.156-.027-.155-.027-.153-.029-.151-.03-.15-.03-.148-.031-.146-.032-.145-.033-.143-.034-.141-.035-.14-.035-.137-.037-.136-.037-.134-.038-.132-.038-.13-.04-.128-.04-.126-.041-.124-.042-.122-.042-.12-.044-.117-.043-.116-.045-.113-.045-.112-.046-.109-.047-.106-.047-.105-.048-.102-.049-.1-.049-.097-.05-.095-.05-.093-.052-.09-.051-.087-.052-.085-.053-.083-.054-.08-.054-.077-.054v4.127zm0-5.654v.011l.001.021.003.021.004.021.005.022.006.022.007.022.009.022.01.022.011.023.012.023.013.023.015.024.016.023.017.024.018.024.019.024.021.024.022.024.023.025.024.024.052.05.056.05.061.05.066.051.07.051.075.052.079.051.084.052.088.052.092.052.097.052.102.052.105.052.11.051.114.051.119.052.123.05.127.051.131.05.135.049.139.049.144.048.147.048.152.047.155.046.16.045.163.045.167.044.171.042.176.042.178.04.183.04.187.038.19.037.194.036.197.034.202.033.204.032.209.03.212.028.216.027.219.025.222.024.226.022.23.02.233.018.236.016.24.014.243.012.246.01.249.008.253.006.256.003.259.001.26-.001.257-.003.254-.006.25-.008.247-.01.244-.012.241-.015.237-.016.233-.018.231-.02.226-.022.224-.024.22-.025.216-.027.212-.029.21-.03.205-.032.202-.033.198-.035.194-.036.191-.037.187-.039.183-.039.179-.041.175-.042.172-.043.168-.044.163-.045.16-.045.155-.047.152-.047.148-.048.143-.048.139-.05.136-.049.131-.05.126-.051.123-.051.118-.051.114-.052.11-.052.106-.052.101-.052.096-.052.092-.052.088-.052.083-.052.079-.052.074-.051.07-.052.065-.051.06-.05.056-.051.051-.049.023-.025.023-.024.021-.025.02-.024.019-.024.018-.024.017-.024.015-.023.014-.023.013-.024.012-.022.01-.023.01-.023.008-.022.006-.022.006-.022.004-.021.004-.022.001-.021.001-.021v-4.139l-.077.054-.08.054-.083.054-.085.052-.087.053-.09.051-.093.051-.095.051-.097.05-.1.049-.102.049-.105.048-.106.047-.109.047-.111.046-.114.045-.115.044-.118.044-.12.044-.122.042-.124.042-.126.041-.128.04-.13.039-.132.039-.134.038-.135.037-.138.036-.139.036-.142.035-.143.033-.144.033-.147.033-.148.031-.15.03-.151.03-.153.028-.154.028-.156.027-.158.026-.159.025-.161.024-.162.023-.163.022-.165.021-.166.02-.167.019-.169.018-.169.017-.171.016-.173.015-.173.014-.175.013-.175.012-.177.011-.178.009-.179.009-.179.007-.181.007-.182.005-.182.004-.184.003-.184.002h-.37l-.184-.002-.184-.003-.182-.004-.182-.005-.181-.007-.179-.007-.179-.009-.178-.009-.176-.011-.176-.012-.175-.013-.173-.014-.172-.015-.171-.016-.17-.017-.169-.018-.167-.019-.166-.02-.165-.021-.163-.022-.162-.023-.161-.024-.159-.025-.157-.026-.156-.027-.155-.028-.153-.028-.151-.03-.15-.03-.148-.031-.146-.033-.145-.033-.143-.033-.141-.035-.14-.036-.137-.036-.136-.037-.134-.038-.132-.039-.13-.039-.128-.04-.126-.041-.124-.042-.122-.043-.12-.043-.117-.044-.116-.044-.113-.046-.112-.046-.109-.046-.106-.047-.105-.048-.102-.049-.1-.049-.097-.05-.095-.051-.093-.051-.09-.051-.087-.053-.085-.052-.083-.054-.08-.054-.077-.054v4.139zm0-5.666v.011l.001.02.003.022.004.021.005.022.006.021.007.022.009.023.01.022.011.023.012.023.013.023.015.023.016.024.017.024.018.023.019.024.021.025.022.024.023.024.024.025.052.05.056.05.061.05.066.051.07.051.075.052.079.051.084.052.088.052.092.052.097.052.102.052.105.051.11.052.114.051.119.051.123.051.127.05.131.05.135.05.139.049.144.048.147.048.152.047.155.046.16.045.163.045.167.043.171.043.176.042.178.04.183.04.187.038.19.037.194.036.197.034.202.033.204.032.209.03.212.028.216.027.219.025.222.024.226.021.23.02.233.018.236.017.24.014.243.012.246.01.249.008.253.006.256.003.259.001.26-.001.257-.003.254-.006.25-.008.247-.01.244-.013.241-.014.237-.016.233-.018.231-.02.226-.022.224-.024.22-.025.216-.027.212-.029.21-.03.205-.032.202-.033.198-.035.194-.036.191-.037.187-.039.183-.039.179-.041.175-.042.172-.043.168-.044.163-.045.16-.045.155-.047.152-.047.148-.048.143-.049.139-.049.136-.049.131-.051.126-.05.123-.051.118-.052.114-.051.11-.052.106-.052.101-.052.096-.052.092-.052.088-.052.083-.052.079-.052.074-.052.07-.051.065-.051.06-.051.056-.05.051-.049.023-.025.023-.025.021-.024.02-.024.019-.024.018-.024.017-.024.015-.023.014-.024.013-.023.012-.023.01-.022.01-.023.008-.022.006-.022.006-.022.004-.022.004-.021.001-.021.001-.021v-4.153l-.077.054-.08.054-.083.053-.085.053-.087.053-.09.051-.093.051-.095.051-.097.05-.1.049-.102.048-.105.048-.106.048-.109.046-.111.046-.114.046-.115.044-.118.044-.12.043-.122.043-.124.042-.126.041-.128.04-.13.039-.132.039-.134.038-.135.037-.138.036-.139.036-.142.034-.143.034-.144.033-.147.032-.148.032-.15.03-.151.03-.153.028-.154.028-.156.027-.158.026-.159.024-.161.024-.162.023-.163.023-.165.021-.166.02-.167.019-.169.018-.169.017-.171.016-.173.015-.173.014-.175.013-.175.012-.177.01-.178.01-.179.009-.179.007-.181.006-.182.006-.182.004-.184.003-.184.001-.185.001-.185-.001-.184-.001-.184-.003-.182-.004-.182-.006-.181-.006-.179-.007-.179-.009-.178-.01-.176-.01-.176-.012-.175-.013-.173-.014-.172-.015-.171-.016-.17-.017-.169-.018-.167-.019-.166-.02-.165-.021-.163-.023-.162-.023-.161-.024-.159-.024-.157-.026-.156-.027-.155-.028-.153-.028-.151-.03-.15-.03-.148-.032-.146-.032-.145-.033-.143-.034-.141-.034-.14-.036-.137-.036-.136-.037-.134-.038-.132-.039-.13-.039-.128-.041-.126-.041-.124-.041-.122-.043-.12-.043-.117-.044-.116-.044-.113-.046-.112-.046-.109-.046-.106-.048-.105-.048-.102-.048-.1-.05-.097-.049-.095-.051-.093-.051-.09-.052-.087-.052-.085-.053-.083-.053-.08-.054-.077-.054v4.153zm8.74-8.179l-.257.004-.254.005-.25.008-.247.011-.244.012-.241.014-.237.016-.233.018-.231.021-.226.022-.224.023-.22.026-.216.027-.212.028-.21.031-.205.032-.202.033-.198.034-.194.036-.191.038-.187.038-.183.04-.179.041-.175.042-.172.043-.168.043-.163.045-.16.046-.155.046-.152.048-.148.048-.143.048-.139.049-.136.05-.131.05-.126.051-.123.051-.118.051-.114.052-.11.052-.106.052-.101.052-.096.052-.092.052-.088.052-.083.052-.079.052-.074.051-.07.052-.065.051-.06.05-.056.05-.051.05-.023.025-.023.024-.021.024-.02.025-.019.024-.018.024-.017.023-.015.024-.014.023-.013.023-.012.023-.01.023-.01.022-.008.022-.006.023-.006.021-.004.022-.004.021-.001.021-.001.021.001.021.001.021.004.021.004.022.006.021.006.023.008.022.01.022.01.023.012.023.013.023.014.023.015.024.017.023.018.024.019.024.02.025.021.024.023.024.023.025.051.05.056.05.06.05.065.051.07.052.074.051.079.052.083.052.088.052.092.052.096.052.101.052.106.052.11.052.114.052.118.051.123.051.126.051.131.05.136.05.139.049.143.048.148.048.152.048.155.046.16.046.163.045.168.043.172.043.175.042.179.041.183.04.187.038.191.038.194.036.198.034.202.033.205.032.21.031.212.028.216.027.22.026.224.023.226.022.231.021.233.018.237.016.241.014.244.012.247.011.25.008.254.005.257.004.26.001.26-.001.257-.004.254-.005.25-.008.247-.011.244-.012.241-.014.237-.016.233-.018.231-.021.226-.022.224-.023.22-.026.216-.027.212-.028.21-.031.205-.032.202-.033.198-.034.194-.036.191-.038.187-.038.183-.04.179-.041.175-.042.172-.043.168-.043.163-.045.16-.046.155-.046.152-.048.148-.048.143-.048.139-.049.136-.05.131-.05.126-.051.123-.051.118-.051.114-.052.11-.052.106-.052.101-.052.096-.052.092-.052.088-.052.083-.052.079-.052.074-.051.07-.052.065-.051.06-.05.056-.05.051-.05.023-.025.023-.024.021-.024.02-.025.019-.024.018-.024.017-.023.015-.024.014-.023.013-.023.012-.023.01-.023.01-.022.008-.022.006-.023.006-.021.004-.022.004-.021.001-.021.001-.021-.001-.021-.001-.021-.004-.021-.004-.022-.006-.021-.006-.023-.008-.022-.01-.022-.01-.023-.012-.023-.013-.023-.014-.023-.015-.024-.017-.023-.018-.024-.019-.024-.02-.025-.021-.024-.023-.024-.023-.025-.051-.05-.056-.05-.06-.05-.065-.051-.07-.052-.074-.051-.079-.052-.083-.052-.088-.052-.092-.052-.096-.052-.101-.052-.106-.052-.11-.052-.114-.052-.118-.051-.123-.051-.126-.051-.131-.05-.136-.05-.139-.049-.143-.048-.148-.048-.152-.048-.155-.046-.16-.046-.163-.045-.168-.043-.172-.043-.175-.042-.179-.041-.183-.04-.187-.038-.191-.038-.194-.036-.198-.034-.202-.033-.205-.032-.21-.031-.212-.028-.216-.027-.22-.026-.224-.023-.226-.022-.231-.021-.233-.018-.237-.016-.241-.014-.244-.012-.247-.011-.25-.008-.254-.005-.257-.004-.26-.001-.26.001z"/></symbol></defs><defs><symbol id="clock" width="24" height="24"><path transform="scale(.5)" d="M12 2c5.514 0 10 4.486 10 10s-4.486 10-10 10-10-4.486-10-10 4.486-10 10-10zm0-2c-6.627 0-12 5.373-12 12s5.373 12 12 12 12-5.373 12-12-5.373-12-12-12zm5.848 12.459c.202.038.202.333.001.372-1.907.361-6.045 1.111-6.547 1.111-.719 0-1.301-.582-1.301-1.301 0-.512.77-5.447 1.125-7.445.034-.192.312-.181.343.014l.985 6.238 5.394 1.011z"/></symbol></defs><defs><marker id="arrowhead" refX="7.9" refY="5" markerUnits="userSpaceOnUse" markerWidth="12" markerHeight="12" orient="auto-start-reverse"><path d="M -1 0 L 10 5 L 0 10 z"/></marker></defs><defs><marker id="crosshead" markerWidth="15" markerHeight="8" orient="auto" refX="4" refY="4.5"><path fill="none" stroke="#000000" stroke-width="1pt" d="M 1,2 L 6,7 M 6,2 L 1,7" style="stroke-dasharray: 0, 0;"/></marker></defs><defs><marker id="filled-head" refX="15.5" refY="7" markerWidth="20" markerHeight="28" orient="auto"><path d="M 18,7 L9,13 L14,7 L9,1 Z"/></marker></defs><defs><marker id="sequencenumber" refX="15" refY="15" markerWidth="60" markerHeight="40" orient="auto" markerUnits="userSpaceOnUse"><circle cx="15" cy="15" r="10"/></marker></defs><defs><filter id="drop-shadow" height="130%" width="130%"><feDropShadow dx="4" dy="4" stdDeviation="0" flood-opacity="0.06" flood-color="#FFFFFF"/></filter></defs><defs><marker id="solidTopArrowHead" refX="7.9" refY="7.25" markerUnits="userSpaceOnUse" markerWidth="12" markerHeight="12" orient="auto-start-reverse"><path d="M 0 0 L 10 8 L 0 8 z"/></marker></defs><defs><marker id="solidBottomArrowHead" refX="7.9" refY="0.75" markerUnits="userSpaceOnUse" markerWidth="12" markerHeight="12" orient="auto-start-reverse"><path d="M 0 0 L 10 0 L 0 8 z"/></marker></defs><defs><marker id="stickTopArrowHead" refX="7.5" refY="7" markerUnits="userSpaceOnUse" markerWidth="12" markerHeight="12" orient="auto-start-reverse"><path d="M 0 0 L 7 7" stroke="black" stroke-width="1.5" fill="none"/></marker></defs><defs><marker id="stickBottomArrowHead" refX="7.5" refY="0" markerUnits="userSpaceOnUse" markerWidth="12" markerHeight="12" orient="auto-start-reverse"><path d="M 0 7 L 7 0" stroke="black" stroke-width="1.5" fill="none"/></marker></defs><g><rect x="363" y="113" fill="#EDF2AE" stroke="#666" width="10" height="1949" class="activation0" data-look="neo"/></g><g><rect x="1220" y="331" fill="#EDF2AE" stroke="#666" width="10" height="142" class="activation0" data-look="neo"/></g><g><rect x="963" y="379" fill="#EDF2AE" stroke="#666" width="10" height="46" class="activation0" data-look="neo"/></g><g data-et="control-structure" data-id="i13"><line x1="353" y1="246" x2="1240" y2="246" class="loopLine"/><line x1="1240" y1="246" x2="1240" y2="483" class="loopLine"/><line x1="353" y1="483" x2="1240" y2="483" class="loopLine"/><line x1="353" y1="246" x2="353" y2="483" class="loopLine"/><polygon points="353,246 403,246 403,274 394.6,281 353,281" class="labelBox"/><text x="378" y="266" text-anchor="middle" dominant-baseline="middle" alignment-baseline="middle" style="font-size: 16px; font-weight: 400;" class="labelText">loop</text><text x="821.5" y="264" text-anchor="middle" style="font-size: 16px; font-weight: 400;" class="loopText"><tspan x="821.5">[9 Rows]</tspan></text></g><g><rect x="1420" y="578" fill="#EDF2AE" stroke="#666" width="10" height="142" class="activation0" data-look="neo"/></g><g><rect x="963" y="626" fill="#EDF2AE" stroke="#666" width="10" height="46" class="activation0" data-look="neo"/></g><g data-et="control-structure" data-id="i23"><line x1="353" y1="493" x2="1440" y2="493" class="loopLine"/><line x1="1440" y1="493" x2="1440" y2="730" class="loopLine"/><line x1="353" y1="730" x2="1440" y2="730" class="loopLine"/><line x1="353" y1="493" x2="353" y2="730" class="loopLine"/><polygon points="353,493 403,493 403,521 394.6,528 353,528" class="labelBox"/><text x="378" y="513" text-anchor="middle" dominant-baseline="middle" alignment-baseline="middle" style="font-size: 16px; font-weight: 400;" class="labelText">loop</text><text x="921.5" y="511" text-anchor="middle" style="font-size: 16px; font-weight: 400;" class="loopText"><tspan x="921.5">[9 Columns]</tspan></text></g><g><rect x="1620" y="825" fill="#EDF2AE" stroke="#666" width="10" height="142" class="activation0" data-look="neo"/></g><g><rect x="963" y="873" fill="#EDF2AE" stroke="#666" width="10" height="46" class="activation0" data-look="neo"/></g><g data-et="control-structure" data-id="i33"><line x1="353" y1="740" x2="1640" y2="740" class="loopLine"/><line x1="1640" y1="740" x2="1640" y2="977" class="loopLine"/><line x1="353" y1="977" x2="1640" y2="977" class="loopLine"/><line x1="353" y1="740" x2="353" y2="977" class="loopLine"/><polygon points="353,740 403,740 403,768 394.6,775 353,775" class="labelBox"/><text x="378" y="760" text-anchor="middle" dominant-baseline="middle" alignment-baseline="middle" style="font-size: 16px; font-weight: 400;" class="labelText">loop</text><text x="1021.5" y="758" text-anchor="middle" style="font-size: 16px; font-weight: 400;" class="loopText"><tspan x="1021.5">[9 Boxes]</tspan></text></g><g><rect x="763" y="1072" fill="#EDF2AE" stroke="#666" width="10" height="932" class="activation0" data-look="neo"/></g><g><rect x="1220" y="1210" fill="#EDF2AE" stroke="#666" width="10" height="142" class="activation0" data-look="neo"/></g><g><rect x="963" y="1258" fill="#EDF2AE" stroke="#666" width="10" height="46" class="activation0" data-look="neo"/></g><g data-et="control-structure" data-id="i47"><line x1="353" y1="1125" x2="1240" y2="1125" class="loopLine"/><line x1="1240" y1="1125" x2="1240" y2="1362" class="loopLine"/><line x1="353" y1="1362" x2="1240" y2="1362" class="loopLine"/><line x1="353" y1="1125" x2="353" y2="1362" class="loopLine"/><polygon points="353,1125 403,1125 403,1153 394.6,1160 353,1160" class="labelBox"/><text x="378" y="1145" text-anchor="middle" dominant-baseline="middle" alignment-baseline="middle" style="font-size: 16px; font-weight: 400;" class="labelText">loop</text><text x="821.5" y="1143" text-anchor="middle" style="font-size: 16px; font-weight: 400;" class="loopText"><tspan x="821.5">[9 Rows]</tspan></text></g><g><rect x="1420" y="1502" fill="#EDF2AE" stroke="#666" width="10" height="142" class="activation0" data-look="neo"/></g><g><rect x="963" y="1550" fill="#EDF2AE" stroke="#666" width="10" height="46" class="activation0" data-look="neo"/></g><g data-et="control-structure" data-id="i58"><line x1="353" y1="1417" x2="1440" y2="1417" class="loopLine"/><line x1="1440" y1="1417" x2="1440" y2="1654" class="loopLine"/><line x1="353" y1="1654" x2="1440" y2="1654" class="loopLine"/><line x1="353" y1="1417" x2="353" y2="1654" class="loopLine"/><polygon points="353,1417 403,1417 403,1445 394.6,1452 353,1452" class="labelBox"/><text x="378" y="1437" text-anchor="middle" dominant-baseline="middle" alignment-baseline="middle" style="font-size: 16px; font-weight: 400;" class="labelText">loop</text><text x="921.5" y="1435" text-anchor="middle" style="font-size: 16px; font-weight: 400;" class="loopText"><tspan x="921.5">[9 Columns]</tspan></text></g><g><rect x="1620" y="1794" fill="#EDF2AE" stroke="#666" width="10" height="142" class="activation0" data-look="neo"/></g><g><rect x="963" y="1842" fill="#EDF2AE" stroke="#666" width="10" height="46" class="activation0" data-look="neo"/></g><g data-et="control-structure" data-id="i69"><line x1="353" y1="1709" x2="1640" y2="1709" class="loopLine"/><line x1="1640" y1="1709" x2="1640" y2="1946" class="loopLine"/><line x1="353" y1="1946" x2="1640" y2="1946" class="loopLine"/><line x1="353" y1="1709" x2="353" y2="1946" class="loopLine"/><polygon points="353,1709 403,1709 403,1737 394.6,1744 353,1744" class="labelBox"/><text x="378" y="1729" text-anchor="middle" dominant-baseline="middle" alignment-baseline="middle" style="font-size: 16px; font-weight: 400;" class="labelText">loop</text><text x="1021.5" y="1727" text-anchor="middle" style="font-size: 16px; font-weight: 400;" class="loopText"><tspan x="1021.5">[9 Boxes]</tspan></text></g><g data-et="control-structure" data-id="i70"><line x1="343" y1="1080" x2="1650" y2="1080" class="loopLine"/><line x1="1650" y1="1080" x2="1650" y2="1956" class="loopLine"/><line x1="343" y1="1956" x2="1650" y2="1956" class="loopLine"/><line x1="343" y1="1080" x2="343" y2="1956" class="loopLine"/><line x1="343" y1="1377" x2="1650" y2="1377" class="loopLine" style="stroke-dasharray: 3, 3;"/><line x1="343" y1="1669" x2="1650" y2="1669" class="loopLine" style="stroke-dasharray: 3, 3;"/><polygon points="343,1080 393,1080 393,1108 384.6,1115 343,1115" class="labelBox"/><text x="368" y="1100" text-anchor="middle" dominant-baseline="middle" alignment-baseline="middle" style="font-size: 16px; font-weight: 400;" class="labelText">par</text><text x="1021.5" y="1098" text-anchor="middle" style="font-size: 16px; font-weight: 400;" class="loopText"><tspan x="1021.5">[Row Check]</tspan></text><text x="996.5" y="1395" text-anchor="middle" style="font-size: 16px; font-weight: 400;" class="loopText">[Column Check]</text><text x="996.5" y="1687" text-anchor="middle" style="font-size: 16px; font-weight: 400;" class="loopText">[Box Check]</text></g><g data-et="control-structure" data-id="i73"><line x1="333" y1="201" x2="1660" y2="201" class="loopLine"/><line x1="1660" y1="201" x2="1660" y2="2014" class="loopLine"/><line x1="333" y1="2014" x2="1660" y2="2014" class="loopLine"/><line x1="333" y1="201" x2="333" y2="2014" class="loopLine"/><line x1="333" y1="992" x2="1660" y2="992" class="loopLine" style="stroke-dasharray: 3, 3;"/><polygon points="333,201 383,201 383,229 374.6,236 333,236" class="labelBox"/><text x="358" y="221" text-anchor="middle" dominant-baseline="middle" alignment-baseline="middle" style="font-size: 16px; font-weight: 400;" class="labelText">alt</text><text x="1021.5" y="219" text-anchor="middle" style="font-size: 16px; font-weight: 400;" class="loopText"><tspan x="1021.5">[Sequential Mode (mode=0)]</tspan></text><text x="996.5" y="1010" text-anchor="middle" style="font-size: 16px; font-weight: 400;" class="loopText">[Parallel Mode (mode=3 or 27)]</text></g><g class="actor-man actor-top" name="Client" data-et="participant" data-type="actor" data-id="Client" style="stroke: rgb(202, 202, 237);"><line id="actor-man-torso168" x1="75" y1="27.5" x2="75" y2="37.5"/><line id="actor-man-arms168" x1="66" y1="31.5" x2="84" y2="31.5"/><line x1="66" y1="45" x2="75" y2="37.5"/><line x1="75" y1="37.5" x2="83" y2="45"/><circle cx="75" cy="20" r="7.5" width="75" height="32.5"/><text x="75" y="55" style="text-anchor: middle; font-size: 16px; font-weight: 400;" dominant-baseline="central" alignment-baseline="central" class="actor actor-man"><tspan x="75" dy="0">Client</tspan></text></g><text x="217" y="80" text-anchor="middle" dominant-baseline="middle" alignment-baseline="middle" style="font-size: 16px; font-weight: 400;" class="messageText" dy="1em">main(args)</text><line x1="76" y1="113" x2="357" y2="113" class="messageLine0" data-et="message" data-id="i0" data-from="Client" data-to="SV" stroke-width="2" stroke="none" marker-end="url(#arrowhead)" style="fill: none;"/><text x="373" y="128" text-anchor="middle" dominant-baseline="middle" alignment-baseline="middle" style="font-size: 16px; font-weight: 400;" class="messageText" dy="1em">readCSV(path)</text><path d="M 373,161 C 433,151 433,191 373,181" class="messageLine0" data-et="message" data-id="i2" data-from="SV" data-to="SV" stroke-width="2" stroke="none" marker-end="url(#arrowhead)" style="fill: none;"/><text x="794" y="296" text-anchor="middle" dominant-baseline="middle" alignment-baseline="middle" style="font-size: 16px; font-weight: 400;" class="messageText" dy="1em">new()</text><line x1="373" y1="329" x2="1214" y2="329" class="messageLine0" data-et="message" data-id="i5" data-from="SV" data-to="RT" stroke-width="2" stroke="none" marker-end="url(#arrowhead)" style="fill: none;"/><text x="1100" y="344" text-anchor="middle" dominant-baseline="middle" alignment-baseline="middle" style="font-size: 16px; font-weight: 400;" class="messageText" dy="1em">findDuplicates()</text><line x1="1220" y1="377" x2="979" y2="377" class="messageLine0" data-et="message" data-id="i7" data-from="RT" data-to="VT" stroke-width="2" stroke="none" marker-end="url(#arrowhead)" style="fill: none;"/><text x="1094" y="392" text-anchor="middle" dominant-baseline="middle" alignment-baseline="middle" style="font-size: 16px; font-weight: 400;" class="messageText" dy="1em">List&lt;String&gt; duplicates</text><line x1="973" y1="425" x2="1214" y2="425" class="messageLine1" data-et="message" data-id="i9" data-from="VT" data-to="RT" stroke-width="2" stroke="none" style="stroke-dasharray: 3, 3; fill: none;" marker-end="url(#arrowhead)"/><text x="800" y="440" text-anchor="middle" dominant-baseline="middle" alignment-baseline="middle" style="font-size: 16px; font-weight: 400;" class="messageText" dy="1em">duplicates</text><line x1="1220" y1="473" x2="379" y2="473" class="messageLine1" data-et="message" data-id="i11" data-from="RT" data-to="SV" stroke-width="2" stroke="none" style="stroke-dasharray: 3, 3; fill: none;" marker-end="url(#arrowhead)"/><text x="894" y="543" text-anchor="middle" dominant-baseline="middle" alignment-baseline="middle" style="font-size: 16px; font-weight: 400;" class="messageText" dy="1em">new()</text><line x1="373" y1="576" x2="1414" y2="576" class="messageLine0" data-et="message" data-id="i15" data-from="SV" data-to="CT" stroke-width="2" stroke="none" marker-end="url(#arrowhead)" style="fill: none;"/><text x="1200" y="591" text-anchor="middle" dominant-baseline="middle" alignment-baseline="middle" style="font-size: 16px; font-weight: 400;" class="messageText" dy="1em">findDuplicates()</text><line x1="1420" y1="624" x2="979" y2="624" class="messageLine0" data-et="message" data-id="i17" data-from="CT" data-to="VT" stroke-width="2" stroke="none" marker-end="url(#arrowhead)" style="fill: none;"/><text x="1194" y="639" text-anchor="middle" dominant-baseline="middle" alignment-baseline="middle" style="font-size: 16px; font-weight: 400;" class="messageText" dy="1em">List&lt;String&gt; duplicates</text><line x1="973" y1="672" x2="1414" y2="672" class="messageLine1" data-et="message" data-id="i19" data-from="VT" data-to="CT" stroke-width="2" stroke="none" style="stroke-dasharray: 3, 3; fill: none;" marker-end="url(#arrowhead)"/><text x="900" y="687" text-anchor="middle" dominant-baseline="middle" alignment-baseline="middle" style="font-size: 16px; font-weight: 400;" class="messageText" dy="1em">duplicates</text><line x1="1420" y1="720" x2="379" y2="720" class="messageLine1" data-et="message" data-id="i21" data-from="CT" data-to="SV" stroke-width="2" stroke="none" style="stroke-dasharray: 3, 3; fill: none;" marker-end="url(#arrowhead)"/><text x="994" y="790" text-anchor="middle" dominant-baseline="middle" alignment-baseline="middle" style="font-size: 16px; font-weight: 400;" class="messageText" dy="1em">new()</text><line x1="373" y1="823" x2="1614" y2="823" class="messageLine0" data-et="message" data-id="i25" data-from="SV" data-to="BT" stroke-width="2" stroke="none" marker-end="url(#arrowhead)" style="fill: none;"/><text x="1300" y="838" text-anchor="middle" dominant-baseline="middle" alignment-baseline="middle" style="font-size: 16px; font-weight: 400;" class="messageText" dy="1em">findDuplicates()</text><line x1="1620" y1="871" x2="979" y2="871" class="messageLine0" data-et="message" data-id="i27" data-from="BT" data-to="VT" stroke-width="2" stroke="none" marker-end="url(#arrowhead)" style="fill: none;"/><text x="1294" y="886" text-anchor="middle" dominant-baseline="middle" alignment-baseline="middle" style="font-size: 16px; font-weight: 400;" class="messageText" dy="1em">List&lt;String&gt; duplicates</text><line x1="973" y1="919" x2="1614" y2="919" class="messageLine1" data-et="message" data-id="i29" data-from="VT" data-to="BT" stroke-width="2" stroke="none" style="stroke-dasharray: 3, 3; fill: none;" marker-end="url(#arrowhead)"/><text x="1000" y="934" text-anchor="middle" dominant-baseline="middle" alignment-baseline="middle" style="font-size: 16px; font-weight: 400;" class="messageText" dy="1em">duplicates</text><line x1="1620" y1="967" x2="379" y2="967" class="messageLine1" data-et="message" data-id="i31" data-from="BT" data-to="SV" stroke-width="2" stroke="none" style="stroke-dasharray: 3, 3; fill: none;" marker-end="url(#arrowhead)"/><text x="565" y="1037" text-anchor="middle" dominant-baseline="middle" alignment-baseline="middle" style="font-size: 16px; font-weight: 400;" class="messageText" dy="1em">newFixedThreadPool(3 or 27)</text><line x1="373" y1="1070" x2="757" y2="1070" class="messageLine0" data-et="message" data-id="i35" data-from="SV" data-to="ES" stroke-width="2" stroke="none" marker-end="url(#arrowhead)" style="fill: none;"/><text x="994" y="1175" text-anchor="middle" dominant-baseline="middle" alignment-baseline="middle" style="font-size: 16px; font-weight: 400;" class="messageText" dy="1em">call()</text><line x1="773" y1="1208" x2="1214" y2="1208" class="messageLine0" data-et="message" data-id="i39" data-from="ES" data-to="RT" stroke-width="2" stroke="none" marker-end="url(#arrowhead)" style="fill: none;"/><text x="1100" y="1223" text-anchor="middle" dominant-baseline="middle" alignment-baseline="middle" style="font-size: 16px; font-weight: 400;" class="messageText" dy="1em">findDuplicates()</text><line x1="1220" y1="1256" x2="979" y2="1256" class="messageLine0" data-et="message" data-id="i41" data-from="RT" data-to="VT" stroke-width="2" stroke="none" marker-end="url(#arrowhead)" style="fill: none;"/><text x="1094" y="1271" text-anchor="middle" dominant-baseline="middle" alignment-baseline="middle" style="font-size: 16px; font-weight: 400;" class="messageText" dy="1em">List&lt;String&gt; duplicates</text><line x1="973" y1="1304" x2="1214" y2="1304" class="messageLine1" data-et="message" data-id="i43" data-from="VT" data-to="RT" stroke-width="2" stroke="none" style="stroke-dasharray: 3, 3; fill: none;" marker-end="url(#arrowhead)"/><text x="800" y="1319" text-anchor="middle" dominant-baseline="middle" alignment-baseline="middle" style="font-size: 16px; font-weight: 400;" class="messageText" dy="1em">add to results</text><line x1="1220" y1="1352" x2="379" y2="1352" class="messageLine1" data-et="message" data-id="i45" data-from="RT" data-to="SV" stroke-width="2" stroke="none" style="stroke-dasharray: 3, 3; fill: none;" marker-end="url(#arrowhead)"/><text x="1094" y="1467" text-anchor="middle" dominant-baseline="middle" alignment-baseline="middle" style="font-size: 16px; font-weight: 400;" class="messageText" dy="1em">call()</text><line x1="773" y1="1500" x2="1414" y2="1500" class="messageLine0" data-et="message" data-id="i50" data-from="ES" data-to="CT" stroke-width="2" stroke="none" marker-end="url(#arrowhead)" style="fill: none;"/><text x="1200" y="1515" text-anchor="middle" dominant-baseline="middle" alignment-baseline="middle" style="font-size: 16px; font-weight: 400;" class="messageText" dy="1em">findDuplicates()</text><line x1="1420" y1="1548" x2="979" y2="1548" class="messageLine0" data-et="message" data-id="i52" data-from="CT" data-to="VT" stroke-width="2" stroke="none" marker-end="url(#arrowhead)" style="fill: none;"/><text x="1194" y="1563" text-anchor="middle" dominant-baseline="middle" alignment-baseline="middle" style="font-size: 16px; font-weight: 400;" class="messageText" dy="1em">List&lt;String&gt; duplicates</text><line x1="973" y1="1596" x2="1414" y2="1596" class="messageLine1" data-et="message" data-id="i54" data-from="VT" data-to="CT" stroke-width="2" stroke="none" style="stroke-dasharray: 3, 3; fill: none;" marker-end="url(#arrowhead)"/><text x="900" y="1611" text-anchor="middle" dominant-baseline="middle" alignment-baseline="middle" style="font-size: 16px; font-weight: 400;" class="messageText" dy="1em">add to results</text><line x1="1420" y1="1644" x2="379" y2="1644" class="messageLine1" data-et="message" data-id="i56" data-from="CT" data-to="SV" stroke-width="2" stroke="none" style="stroke-dasharray: 3, 3; fill: none;" marker-end="url(#arrowhead)"/><text x="1194" y="1759" text-anchor="middle" dominant-baseline="middle" alignment-baseline="middle" style="font-size: 16px; font-weight: 400;" class="messageText" dy="1em">call()</text><line x1="773" y1="1792" x2="1614" y2="1792" class="messageLine0" data-et="message" data-id="i61" data-from="ES" data-to="BT" stroke-width="2" stroke="none" marker-end="url(#arrowhead)" style="fill: none;"/><text x="1300" y="1807" text-anchor="middle" dominant-baseline="middle" alignment-baseline="middle" style="font-size: 16px; font-weight: 400;" class="messageText" dy="1em">findDuplicates()</text><line x1="1620" y1="1840" x2="979" y2="1840" class="messageLine0" data-et="message" data-id="i63" data-from="BT" data-to="VT" stroke-width="2" stroke="none" marker-end="url(#arrowhead)" style="fill: none;"/><text x="1294" y="1855" text-anchor="middle" dominant-baseline="middle" alignment-baseline="middle" style="font-size: 16px; font-weight: 400;" class="messageText" dy="1em">List&lt;String&gt; duplicates</text><line x1="973" y1="1888" x2="1614" y2="1888" class="messageLine1" data-et="message" data-id="i65" data-from="VT" data-to="BT" stroke-width="2" stroke="none" style="stroke-dasharray: 3, 3; fill: none;" marker-end="url(#arrowhead)"/><text x="1000" y="1903" text-anchor="middle" dominant-baseline="middle" alignment-baseline="middle" style="font-size: 16px; font-weight: 400;" class="messageText" dy="1em">add to results</text><line x1="1620" y1="1936" x2="379" y2="1936" class="messageLine1" data-et="message" data-id="i67" data-from="BT" data-to="SV" stroke-width="2" stroke="none" style="stroke-dasharray: 3, 3; fill: none;" marker-end="url(#arrowhead)"/><text x="571" y="1971" text-anchor="middle" dominant-baseline="middle" alignment-baseline="middle" style="font-size: 16px; font-weight: 400;" class="messageText" dy="1em">All tasks completed</text><line x1="763" y1="2004" x2="379" y2="2004" class="messageLine1" data-et="message" data-id="i71" data-from="ES" data-to="SV" stroke-width="2" stroke="none" style="stroke-dasharray: 3, 3; fill: none;" marker-end="url(#arrowhead)"/><text x="223" y="2029" text-anchor="middle" dominant-baseline="middle" alignment-baseline="middle" style="font-size: 16px; font-weight: 400;" class="messageText" dy="1em">VALID/INVALID + duplicates</text><line x1="363" y1="2062" x2="82" y2="2062" class="messageLine1" data-et="message" data-id="i74" data-from="SV" data-to="Client" stroke-width="2" stroke="none" style="stroke-dasharray: 3, 3; fill: none;" marker-end="url(#arrowhead)"/><g class="actor-man actor-bottom" name="Client" style="stroke: rgb(202, 202, 237);"><line id="actor-man-torso175" x1="75" y1="2109.5" x2="75" y2="2119.5"/><line id="actor-man-arms175" x1="66" y1="2113.5" x2="84" y2="2113.5"/><line x1="66" y1="2127" x2="75" y2="2119.5"/><line x1="75" y1="2119.5" x2="83" y2="2127"/><circle cx="75" cy="2102" r="7.5" width="75" height="16.25"/><text x="75" y="2137" style="text-anchor: middle; font-size: 16px; font-weight: 400;" dominant-baseline="central" alignment-baseline="central" class="actor actor-man"><tspan x="75" dy="0">Client</tspan></text></g></svg>